<mxfile host="Electron" agent="Mozilla/5.0 (Windows NT 10.0; Win64; x64) AppleWebKit/537.36 (KHTML, like Gecko) draw.io/26.0.4 Chrome/128.0.6613.186 Electron/32.2.5 Safari/537.36" version="26.0.4">
  <diagram name="Page-1" id="e7e014a7-5840-1c2e-5031-d8a46d1fe8dd">
    <mxGraphModel dx="1050" dy="621" grid="1" gridSize="10" guides="1" tooltips="1" connect="1" arrows="1" fold="1" page="1" pageScale="1" pageWidth="1169" pageHeight="826" background="none" math="0" shadow="0">
      <root>
        <mxCell id="0" />
        <mxCell id="1" parent="0" />
        <mxCell id="ANCowg9YearEilIoJKkT-41" value="Admin" style="swimlane;whiteSpace=wrap" parent="1" vertex="1">
          <mxGeometry x="160" y="50" width="300" height="632" as="geometry" />
        </mxCell>
        <mxCell id="ANCowg9YearEilIoJKkT-42" value="" style="ellipse;shape=startState;fillColor=#000000;strokeColor=#ff0000;" parent="ANCowg9YearEilIoJKkT-41" vertex="1">
          <mxGeometry x="100" y="42" width="30" height="30" as="geometry" />
        </mxCell>
        <mxCell id="ANCowg9YearEilIoJKkT-43" value="" style="edgeStyle=elbowEdgeStyle;elbow=vertical;verticalAlign=bottom;endArrow=open;endSize=8;strokeColor=#FF0000;endFill=1;rounded=0;entryX=0.5;entryY=0;entryDx=0;entryDy=0;" parent="ANCowg9YearEilIoJKkT-41" target="ANCowg9YearEilIoJKkT-44" edge="1">
          <mxGeometry x="100" y="40" as="geometry">
            <mxPoint x="114.5" y="110" as="targetPoint" />
            <mxPoint x="115.5" y="72" as="sourcePoint" />
            <Array as="points">
              <mxPoint x="95" y="98" />
            </Array>
          </mxGeometry>
        </mxCell>
        <mxCell id="ANCowg9YearEilIoJKkT-44" value="Chọn chức năng quản lý hóa đơn" style="rounded=1;whiteSpace=wrap;html=1;" parent="ANCowg9YearEilIoJKkT-41" vertex="1">
          <mxGeometry x="55" y="112" width="120" height="60" as="geometry" />
        </mxCell>
        <mxCell id="ANCowg9YearEilIoJKkT-45" value="Yêu cầu đăng nhập" style="rounded=1;whiteSpace=wrap;html=1;" parent="ANCowg9YearEilIoJKkT-41" vertex="1">
          <mxGeometry x="55" y="192" width="120" height="60" as="geometry" />
        </mxCell>
        <mxCell id="ANCowg9YearEilIoJKkT-48" value="Chọn chức năng hủy&amp;nbsp; hóa đơn" style="rounded=1;whiteSpace=wrap;html=1;" parent="ANCowg9YearEilIoJKkT-41" vertex="1">
          <mxGeometry x="10" y="363" width="120" height="60" as="geometry" />
        </mxCell>
        <mxCell id="ANCowg9YearEilIoJKkT-49" value="" style="endArrow=open;strokeColor=#FF0000;endFill=1;rounded=0;exitX=1;exitY=0.5;exitDx=0;exitDy=0;entryX=0;entryY=0.5;entryDx=0;entryDy=0;" parent="ANCowg9YearEilIoJKkT-41" source="ANCowg9YearEilIoJKkT-48" target="ANCowg9YearEilIoJKkT-50" edge="1">
          <mxGeometry relative="1" as="geometry">
            <mxPoint x="205" y="400" as="sourcePoint" />
            <mxPoint x="180" y="393" as="targetPoint" />
            <Array as="points" />
          </mxGeometry>
        </mxCell>
        <mxCell id="ANCowg9YearEilIoJKkT-50" value="Nhập thông tin hóa đơn" style="rounded=1;whiteSpace=wrap;html=1;" parent="ANCowg9YearEilIoJKkT-41" vertex="1">
          <mxGeometry x="160" y="363" width="120" height="60" as="geometry" />
        </mxCell>
        <mxCell id="ANCowg9YearEilIoJKkT-51" value="Thông báo lỗi, yêu cầu chỉnh sửa" style="rounded=1;whiteSpace=wrap;html=1;" parent="ANCowg9YearEilIoJKkT-41" vertex="1">
          <mxGeometry x="160" y="470" width="120" height="60" as="geometry" />
        </mxCell>
        <mxCell id="ANCowg9YearEilIoJKkT-52" value="" style="endArrow=open;strokeColor=#FF0000;endFill=1;rounded=0;exitX=0.5;exitY=0;exitDx=0;exitDy=0;entryX=0.5;entryY=1;entryDx=0;entryDy=0;" parent="ANCowg9YearEilIoJKkT-41" source="ANCowg9YearEilIoJKkT-51" target="ANCowg9YearEilIoJKkT-50" edge="1">
          <mxGeometry relative="1" as="geometry">
            <mxPoint x="290" y="403" as="sourcePoint" />
            <mxPoint x="410" y="330" as="targetPoint" />
            <Array as="points" />
          </mxGeometry>
        </mxCell>
        <mxCell id="ANCowg9YearEilIoJKkT-53" value="Hệ thống" style="swimlane;whiteSpace=wrap;startSize=23;" parent="1" vertex="1">
          <mxGeometry x="460" y="50" width="380" height="632" as="geometry" />
        </mxCell>
        <mxCell id="ANCowg9YearEilIoJKkT-54" value="" style="endArrow=open;strokeColor=#FF0000;endFill=1;rounded=0;exitX=0.5;exitY=1;exitDx=0;exitDy=0;entryX=0.5;entryY=0;entryDx=0;entryDy=0;" parent="ANCowg9YearEilIoJKkT-53" source="ANCowg9YearEilIoJKkT-55" target="ANCowg9YearEilIoJKkT-56" edge="1">
          <mxGeometry relative="1" as="geometry">
            <mxPoint x="126.10000000000001" y="121.26000000000005" as="sourcePoint" />
            <mxPoint x="129.9997413674507" y="172.00012931627464" as="targetPoint" />
            <Array as="points" />
          </mxGeometry>
        </mxCell>
        <mxCell id="ANCowg9YearEilIoJKkT-55" value="Kiểm tra đăng nhập" style="rounded=1;whiteSpace=wrap;html=1;" parent="ANCowg9YearEilIoJKkT-53" vertex="1">
          <mxGeometry x="95" y="92" width="120" height="60" as="geometry" />
        </mxCell>
        <mxCell id="ANCowg9YearEilIoJKkT-56" value="" style="rhombus;fillColor=#ffffc0;strokeColor=#ff0000;" parent="ANCowg9YearEilIoJKkT-53" vertex="1">
          <mxGeometry x="115" y="212" width="80" height="48" as="geometry" />
        </mxCell>
        <mxCell id="ANCowg9YearEilIoJKkT-57" value="" style="endArrow=classic;html=1;rounded=0;dashed=1;fillColor=#d80073;strokeColor=light-dark(#ff0000, #FFA9E0);" parent="ANCowg9YearEilIoJKkT-53" source="ANCowg9YearEilIoJKkT-58" target="ANCowg9YearEilIoJKkT-55" edge="1">
          <mxGeometry width="50" height="50" relative="1" as="geometry">
            <mxPoint x="215" y="62" as="sourcePoint" />
            <mxPoint x="210" y="32" as="targetPoint" />
          </mxGeometry>
        </mxCell>
        <mxCell id="ANCowg9YearEilIoJKkT-58" value="Tài khoản" style="rounded=0;whiteSpace=wrap;html=1;" parent="ANCowg9YearEilIoJKkT-53" vertex="1">
          <mxGeometry x="290" y="62" width="70" height="30" as="geometry" />
        </mxCell>
        <mxCell id="ANCowg9YearEilIoJKkT-59" value="" style="rhombus;fillColor=#ffffc0;strokeColor=#ff0000;" parent="ANCowg9YearEilIoJKkT-53" vertex="1">
          <mxGeometry x="120" y="390" width="80" height="48" as="geometry" />
        </mxCell>
        <mxCell id="ANCowg9YearEilIoJKkT-62" value="Kiểm tra thông tin hóa đơn" style="rounded=1;whiteSpace=wrap;html=1;" parent="ANCowg9YearEilIoJKkT-53" vertex="1">
          <mxGeometry x="100" y="290" width="120" height="60" as="geometry" />
        </mxCell>
        <mxCell id="ANCowg9YearEilIoJKkT-63" value="" style="endArrow=open;strokeColor=#FF0000;endFill=1;rounded=0;entryX=0.5;entryY=0;entryDx=0;entryDy=0;" parent="ANCowg9YearEilIoJKkT-53" source="ANCowg9YearEilIoJKkT-62" target="ANCowg9YearEilIoJKkT-59" edge="1">
          <mxGeometry relative="1" as="geometry">
            <mxPoint x="-10" y="403" as="sourcePoint" />
            <mxPoint x="110" y="330" as="targetPoint" />
            <Array as="points" />
          </mxGeometry>
        </mxCell>
        <mxCell id="ANCowg9YearEilIoJKkT-66" value="Hóa đơn" style="rounded=0;whiteSpace=wrap;html=1;" parent="ANCowg9YearEilIoJKkT-53" vertex="1">
          <mxGeometry x="210" y="250" width="70" height="30" as="geometry" />
        </mxCell>
        <mxCell id="ANCowg9YearEilIoJKkT-67" value="" style="endArrow=classic;html=1;rounded=0;dashed=1;entryX=1;entryY=0.3;entryDx=0;entryDy=0;entryPerimeter=0;exitX=0.623;exitY=1.02;exitDx=0;exitDy=0;exitPerimeter=0;fillColor=#d80073;strokeColor=light-dark(#ff0000, #FFA9E0);" parent="ANCowg9YearEilIoJKkT-53" target="ANCowg9YearEilIoJKkT-62" edge="1">
          <mxGeometry width="50" height="50" relative="1" as="geometry">
            <mxPoint x="245" y="280" as="sourcePoint" />
            <mxPoint x="230" y="308" as="targetPoint" />
          </mxGeometry>
        </mxCell>
        <mxCell id="ANCowg9YearEilIoJKkT-68" value="" style="ellipse;html=1;shape=endState;fillColor=#000000;strokeColor=#ff0000;" parent="ANCowg9YearEilIoJKkT-53" vertex="1">
          <mxGeometry x="260" y="555" width="30" height="30" as="geometry" />
        </mxCell>
        <mxCell id="8oDbz2FjMV-qAiwFvMq--4" value="" style="edgeStyle=orthogonalEdgeStyle;rounded=0;orthogonalLoop=1;jettySize=auto;html=1;strokeColor=#FF0000;" edge="1" parent="ANCowg9YearEilIoJKkT-53" source="xAffNL2rtKkcjaYn_AxL-1" target="ANCowg9YearEilIoJKkT-68">
          <mxGeometry relative="1" as="geometry" />
        </mxCell>
        <mxCell id="xAffNL2rtKkcjaYn_AxL-1" value="Thông báo thành công" style="rounded=1;whiteSpace=wrap;html=1;" parent="ANCowg9YearEilIoJKkT-53" vertex="1">
          <mxGeometry x="95" y="540" width="120" height="60" as="geometry" />
        </mxCell>
        <mxCell id="ANCowg9YearEilIoJKkT-60" value="" style="endArrow=open;strokeColor=#FF0000;endFill=1;rounded=0;" parent="ANCowg9YearEilIoJKkT-53" source="ANCowg9YearEilIoJKkT-59" target="ANCowg9YearEilIoJKkT-64" edge="1">
          <mxGeometry relative="1" as="geometry">
            <mxPoint x="159.5" y="458" as="sourcePoint" />
            <mxPoint x="159.5" y="510" as="targetPoint" />
            <Array as="points" />
          </mxGeometry>
        </mxCell>
        <mxCell id="ANCowg9YearEilIoJKkT-61" value="Đúng" style="edgeLabel;html=1;align=center;verticalAlign=middle;resizable=0;points=[];" parent="ANCowg9YearEilIoJKkT-60" connectable="0" vertex="1">
          <mxGeometry x="-0.064" y="2" relative="1" as="geometry">
            <mxPoint as="offset" />
          </mxGeometry>
        </mxCell>
        <mxCell id="8oDbz2FjMV-qAiwFvMq--1" value="" style="rounded=0;orthogonalLoop=1;jettySize=auto;html=1;strokeColor=light-dark(#ff0000, #ededed);" edge="1" parent="ANCowg9YearEilIoJKkT-53" source="ANCowg9YearEilIoJKkT-64" target="xAffNL2rtKkcjaYn_AxL-1">
          <mxGeometry relative="1" as="geometry" />
        </mxCell>
        <mxCell id="ANCowg9YearEilIoJKkT-64" value="Tiến hành xóa hóa đơn" style="rounded=1;whiteSpace=wrap;html=1;" parent="ANCowg9YearEilIoJKkT-53" vertex="1">
          <mxGeometry x="100" y="470" width="120" height="50" as="geometry" />
        </mxCell>
        <mxCell id="ANCowg9YearEilIoJKkT-69" value="" style="endArrow=open;strokeColor=#FF0000;endFill=1;rounded=0;" parent="1" source="ANCowg9YearEilIoJKkT-45" target="ANCowg9YearEilIoJKkT-55" edge="1">
          <mxGeometry relative="1" as="geometry">
            <mxPoint x="340" y="400" as="sourcePoint" />
            <mxPoint x="340" y="460" as="targetPoint" />
            <Array as="points" />
          </mxGeometry>
        </mxCell>
        <mxCell id="ANCowg9YearEilIoJKkT-70" value="" style="endArrow=open;strokeColor=#FF0000;endFill=1;rounded=0;" parent="1" source="ANCowg9YearEilIoJKkT-44" target="ANCowg9YearEilIoJKkT-55" edge="1">
          <mxGeometry relative="1" as="geometry">
            <mxPoint x="360" y="370" as="sourcePoint" />
            <mxPoint x="564" y="252" as="targetPoint" />
            <Array as="points" />
          </mxGeometry>
        </mxCell>
        <mxCell id="ANCowg9YearEilIoJKkT-71" value="" style="endArrow=open;strokeColor=#FF0000;endFill=1;rounded=0;" parent="1" source="ANCowg9YearEilIoJKkT-56" target="ANCowg9YearEilIoJKkT-45" edge="1">
          <mxGeometry relative="1" as="geometry">
            <mxPoint x="609.5" y="390" as="sourcePoint" />
            <mxPoint x="350" y="378" as="targetPoint" />
          </mxGeometry>
        </mxCell>
        <mxCell id="ANCowg9YearEilIoJKkT-72" value="Sai" style="edgeLabel;html=1;align=center;verticalAlign=middle;resizable=0;points=[];" parent="ANCowg9YearEilIoJKkT-71" connectable="0" vertex="1">
          <mxGeometry x="0.0104" y="1" relative="1" as="geometry">
            <mxPoint as="offset" />
          </mxGeometry>
        </mxCell>
        <mxCell id="ANCowg9YearEilIoJKkT-73" value="" style="endArrow=open;strokeColor=#FF0000;endFill=1;rounded=0;" parent="1" source="ANCowg9YearEilIoJKkT-56" target="ANCowg9YearEilIoJKkT-48" edge="1">
          <mxGeometry relative="1" as="geometry">
            <mxPoint x="430" y="438" as="sourcePoint" />
            <mxPoint x="335" y="360" as="targetPoint" />
            <Array as="points" />
          </mxGeometry>
        </mxCell>
        <mxCell id="ANCowg9YearEilIoJKkT-74" value="Đúng" style="edgeLabel;html=1;align=center;verticalAlign=middle;resizable=0;points=[];" parent="ANCowg9YearEilIoJKkT-73" connectable="0" vertex="1">
          <mxGeometry x="-0.064" y="2" relative="1" as="geometry">
            <mxPoint as="offset" />
          </mxGeometry>
        </mxCell>
        <mxCell id="ANCowg9YearEilIoJKkT-75" value="" style="endArrow=open;strokeColor=#FF0000;endFill=1;rounded=0;exitX=1;exitY=0.5;exitDx=0;exitDy=0;entryX=0;entryY=0.5;entryDx=0;entryDy=0;" parent="1" source="ANCowg9YearEilIoJKkT-50" target="ANCowg9YearEilIoJKkT-62" edge="1">
          <mxGeometry relative="1" as="geometry">
            <mxPoint x="545" y="480" as="sourcePoint" />
            <mxPoint x="550" y="380" as="targetPoint" />
            <Array as="points" />
          </mxGeometry>
        </mxCell>
        <mxCell id="ANCowg9YearEilIoJKkT-76" value="" style="endArrow=open;strokeColor=#FF0000;endFill=1;rounded=0;entryX=1;entryY=0.5;entryDx=0;entryDy=0;exitX=0;exitY=0.5;exitDx=0;exitDy=0;" parent="1" source="ANCowg9YearEilIoJKkT-59" target="ANCowg9YearEilIoJKkT-51" edge="1">
          <mxGeometry relative="1" as="geometry">
            <mxPoint x="560" y="480" as="sourcePoint" />
            <mxPoint x="365" y="501" as="targetPoint" />
          </mxGeometry>
        </mxCell>
        <mxCell id="ANCowg9YearEilIoJKkT-77" value="Sai" style="edgeLabel;html=1;align=center;verticalAlign=middle;resizable=0;points=[];" parent="ANCowg9YearEilIoJKkT-76" connectable="0" vertex="1">
          <mxGeometry x="0.0104" y="1" relative="1" as="geometry">
            <mxPoint as="offset" />
          </mxGeometry>
        </mxCell>
      </root>
    </mxGraphModel>
  </diagram>
</mxfile>
